<?xml version="1.0" encoding="UTF-8"?>
<!DOCTYPE svg  PUBLIC '-//W3C//DTD SVG 1.1//EN'  'http://www.w3.org/Graphics/SVG/1.1/DTD/svg11.dtd'>
<svg width="283.46" height="283.46" enable-background="new 0 0 283.464 283.464" version="1.1" viewBox="0 0 283.464 283.464" xmlns="http://www.w3.org/2000/svg">
 <path d="m153.56 217.29c-1.794-0.82-3.934-4.085-5.851-11.195-1.965-7.012-4.265-13.434-7.968-19.52-0.639-0.647-1.228-1.105-1.867-0.957l-2.369 0.403c-0.928 0.22-1.466 0.661-1.463 1.413-0.523 9.252-0.834 18.473-0.251 27.587l-0.353 0.454-0.96 0.051c-1.901 0.014-1.786-0.227-2.168-0.403 0.273-5.276-0.185-10.672-0.757-16.089-0.772-8.033-2.845-15.693-6.401-22.929-0.164-0.503-0.029-0.728 0.109-0.918-2.054-5.23 3.126-14.42 9.581-18.429 0.246-0.265 0.377-0.41 0.489-0.538-0.12-1.08 20.918 28.887 19.373 27.783 1.907 3.666 3.187 7.33 4.388 10.996 1.869 3.591 5.356 5.278 10.944 4.489 3.377-0.203 6.757 2.521 10.035 3.933 6.028 2.514 11.702 4.955 13.568 6.608 1.009 1.31 0.856 2.673 0 3.631-0.19 0.736-0.692 1.158-1.415 1.361-6.517 1.979-13.504 2.864-20.475 3.784-8.38 0.65-13.38-0.01-16.18-1.5z" fill-rule="evenodd"/>
 <path d="m264.61 74.713l-24.35-32.52-17.907-3.826-1.334-4.296 0.056-0.574h-0.233l-0.054-0.172-10.813 0.085-10.813-0.085-0.054 0.172h-0.233l0.056 0.574-1.333 4.296-17.908 3.826-24.35 32.52-3.303 39.476 14.956 24.871 11.826-5.914s11.905 9.156 31.157 8.696c19.251 0.46 31.156-8.696 31.156-8.696l11.826 5.914 14.956-24.871-3.36-39.477zm-86.49 45.387l-11.997-23.827 12.87-15.824c4.18 24.001-0.87 39.651-0.87 39.651zm63.71 0s-5.043-15.655-0.873-39.65l12.87 15.824-12 23.826z"/>
 <path d="m216.62 147.47c-0.144 1.76 0.349 4.769 0.709 6.976 0.452 2.742-0.491 14.79-0.447 19.224 0.042 4.432-2.725 24.734-3.74 29.599-1.007 4.868-3.104 6.365-4.357 7.856-1.255 1.489-8.973 11.059-11.902 13.835-2.935 2.777-11.266 7.036-12.96 7.479-1.685 0.431-15.733 5.573-16.353 6.85-0.414 0.842-0.966 3.047-1.373 4.646h48.311c3.168-5.539 7.365-14.772 8.355-15.747 1.537-1.511 4.626-1.993 6.111-1.958 2.281 0.051 1.181 12.049 0.996 17.706h11.046c0.347-9.173 3.993-17.972 3.291-20.616-0.642-2.418-4.518-7.583-4.518-7.583s-0.326-5.692-0.082-8.41c0.247-2.721 2.844-12.474 3.315-15.8 0.46-3.259 6.352-16.651 8.309-22.604 2.388-7.268 2.533-19.308 2.533-19.308-0.104-0.735-0.209-1.47-0.551-2.142h-36.69z"/>
 <path d="m97.072 194.69l-7.797 6.167c-2.758 1.399-3.784 1.399-6.723 0l-8.851-6.167c-2.83-1.667-9.372 2.128-9.372 4.754l-7.695 26.402h57.504l-7.695-26.402c0-2.62-6.33-6.81-9.368-4.75z"/>
 <rect x="56.634" y="229.12" width="57.504" height="5.386"/>
 <rect x="45.188" y="236.82" width="80.396" height="7.118"/>
 <g fill-rule="evenodd">
  <polygon points="105.88 106.78 62.353 106.78 60.326 119.95 53.984 182.96 83.849 182.96 84.385 182.96 114.25 182.96 107.91 119.95"/>
  <path d="m124.27 62.883c-2.064-9.118-7.762-10.528-14.728-14.729-0.526-0.635-12.273-6.035-12.273-6.035h5.523l-10.023-8.795h-17.31l-10.018 8.796h5.522s-11.747 5.4-12.273 6.035c-6.966 4.2-12.664 5.611-14.728 14.729-2.455 10.841-22.91 80.799-22.91 80.799l15.342 1.432 22.296-66.072 4.019 16.077h42.818l4.02-16.077 22.296 66.072 15.341-1.432s-20.45-69.956-22.91-80.797zm-32.521-14.32l-7.632 5.285-7.632-5.285v-6.443s3.616-9e-3 7.632-0.012c4.016 3e-3 7.632 0.012 7.632 0.012v6.443z"/>
  <rect x="78.748" y="97.437" width="10.738" height="7.636"/>
  <rect x="100.7" y="97.437" width="3.647" height="7.636"/>
  <rect x="63.883" y="97.437" width="3.647" height="7.636"/>
 </g>
</svg>
